<?xml version="1.0" encoding="UTF-8" standalone="no"?>
<!-- Created with Inkscape (http://www.inkscape.org/) -->

<svg
   version="1.1"
   id="svg1"
   width="682.66669"
   height="682.66669"
   viewBox="0 0 682.66669 682.66669"
   sodipodi:docname="Logo (1) (1).ai"
   xmlns:inkscape="http://www.inkscape.org/namespaces/inkscape"
   xmlns:sodipodi="http://sodipodi.sourceforge.net/DTD/sodipodi-0.dtd"
   xmlns="http://www.w3.org/2000/svg"
   xmlns:svg="http://www.w3.org/2000/svg">
  <defs
     id="defs1">
    <clipPath
       clipPathUnits="userSpaceOnUse"
       id="clipPath2">
      <path
         d="M 0,512 H 512 V 0 H 0 Z"
         transform="translate(-505.50001,-255)"
         id="path2" />
    </clipPath>
    <clipPath
       clipPathUnits="userSpaceOnUse"
       id="clipPath4">
      <path
         d="M 0,512 H 512 V 0 H 0 Z"
         transform="translate(-207.38181,-57.575699)"
         id="path4" />
    </clipPath>
    <clipPath
       clipPathUnits="userSpaceOnUse"
       id="clipPath6">
      <path
         d="M 0,512 H 512 V 0 H 0 Z"
         transform="translate(-248.8213,-57.575699)"
         id="path6" />
    </clipPath>
    <clipPath
       clipPathUnits="userSpaceOnUse"
       id="clipPath8">
      <path
         d="M 0,512 H 512 V 0 H 0 Z"
         transform="translate(-308.02051,-57.575699)"
         id="path8" />
    </clipPath>
    <clipPath
       clipPathUnits="userSpaceOnUse"
       id="clipPath10">
      <path
         d="M 0,512 H 512 V 0 H 0 Z"
         transform="translate(-481.50001,-255.50001)"
         id="path10" />
    </clipPath>
    <clipPath
       clipPathUnits="userSpaceOnUse"
       id="clipPath12">
      <path
         d="M 0,512 H 512 V 0 H 0 Z"
         transform="translate(-326.64871,-283.30731)"
         id="path12" />
    </clipPath>
    <clipPath
       clipPathUnits="userSpaceOnUse"
       id="clipPath14">
      <path
         d="M 0,512 H 512 V 0 H 0 Z"
         transform="translate(-258.14301,-287.50061)"
         id="path14" />
    </clipPath>
  </defs>
  <sodipodi:namedview
     id="namedview1"
     pagecolor="#505050"
     bordercolor="#eeeeee"
     borderopacity="1"
     inkscape:showpageshadow="0"
     inkscape:pageopacity="0"
     inkscape:pagecheckerboard="0"
     inkscape:deskcolor="#505050">
    <inkscape:page
       x="0"
       y="0"
       inkscape:label="1"
       id="page1"
       width="682.66669"
       height="682.66669"
       margin="0.66666669 2 3.3333333"
       bleed="0"
       inkscape:export-filename="Logo (1) (1).ai.png"
       inkscape:export-xdpi="96"
       inkscape:export-ydpi="96" />
  </sodipodi:namedview>
  <g
     id="layer-MC0"
     inkscape:groupmode="layer"
     inkscape:label="Layer 2">
    <path
       id="path1"
       d="m 0,0 c 0,-137.795 -111.705,-249.5 -249.5,-249.5 -137.795,0 -249.5,111.705 -249.5,249.5 0,137.795 111.705,249.5 249.5,249.5 C -111.705,249.5 0,137.795 0,0"
       style="fill:none;fill-opacity:1;fill-rule:nonzero;stroke:#ffffff;stroke-width:10;stroke-linecap:butt;stroke-linejoin:miter;stroke-miterlimit:10;stroke-dasharray:none;stroke-opacity:1"
       transform="matrix(1.3333333,0,0,-1.3333333,674,342.66667)"
       clip-path="url(#clipPath2)" />
    <path
       id="path3"
       d="m 0,0 h 15.2 c 12.64,0 21.119,5.28 21.119,16.48 0,6.72 -4.96,10.24 -10.079,11.36 v 0.32 c 4.96,0.8 12,5.28 12,13.28 0,7.04 -5.44,11.36 -15.2,11.36 H 10.56 Z m 8.16,29.12 4.32,21.6 h 9.28 c 9.76,0 14.08,-3.52 14.08,-9.44 0,-7.04 -6.08,-12.16 -18.24,-12.16 z M 2.72,2.08 7.84,27.04 h 11.2 c 9.439,0 14.88,-4.64 14.88,-10.8 C 33.92,5.92 25.76,2.08 13.76,2.08 Z"
       style="fill:none;stroke:#ffffff;stroke-width:3;stroke-linecap:butt;stroke-linejoin:miter;stroke-miterlimit:10;stroke-dasharray:none;stroke-opacity:1"
       transform="matrix(1.3333333,0,0,-1.3333333,276.50907,605.89907)"
       clip-path="url(#clipPath4)" />
    <path
       id="path5"
       d="m 0,0 h 29.6 l 0.32,2.08 H 4 c 21.6,18.56 31.04,26.4 31.04,38.4 0,6.56 -4.16,11.68 -12.16,11.68 -5.12,0 -9.28,-2.4 -13.76,-6.24 l 1.44,-1.76 c 4,4 8.32,5.92 12.16,5.92 C 29.6,50.08 32.8,45.44 32.8,40 32.8,29.28 23.68,21.92 0.159,1.6 Z"
       style="fill:none;stroke:#ffffff;stroke-width:3;stroke-linecap:butt;stroke-linejoin:miter;stroke-miterlimit:10;stroke-dasharray:none;stroke-opacity:1"
       transform="matrix(1.3333333,0,0,-1.3333333,331.76173,605.89907)"
       clip-path="url(#clipPath6)" />
    <path
       id="path7"
       d="m 0,0 3.12,15.52 h 7.28 l 0.48,2.08 H 3.52 l 6.72,33.6 H 8.64 L -21.28,16.8 -21.44,15.52 H 0.88 L -2.24,0 Z M -17.76,17.6 0.8,39.2 c 1.92,2.24 4.16,4.8 6.4,7.68 H 7.52 C 6.72,43.52 5.76,40.08 5.28,37.6 l -4,-20 z"
       style="fill:none;stroke:#ffffff;stroke-width:3;stroke-linecap:butt;stroke-linejoin:miter;stroke-miterlimit:10;stroke-dasharray:none;stroke-opacity:1"
       transform="matrix(1.3333333,0,0,-1.3333333,410.694,605.89907)"
       clip-path="url(#clipPath8)" />
    <path
       id="path9"
       d="m 0,0 c 0,-124.264 -100.736,-225 -225,-225 -124.264,0 -225,100.736 -225,225 0,124.264 100.736,225 225,225 C -100.736,225 0,124.264 0,0 Z"
       style="fill:none;stroke:#ffffff;stroke-width:10;stroke-linecap:butt;stroke-linejoin:miter;stroke-miterlimit:10;stroke-dasharray:none;stroke-opacity:1"
       transform="matrix(1.3333333,0,0,-1.3333333,642,342)"
       clip-path="url(#clipPath10)" />
    <path
       id="path11"
       d="m 0,0 c 0,-43.061 -34.908,-77.969 -77.969,-77.969 -43.061,0 -77.969,34.908 -77.969,77.969 0,43.061 34.908,77.969 77.969,77.969 C -34.908,77.969 0,43.061 0,0 Z"
       style="fill:none;stroke:#ffffff;stroke-width:10;stroke-linecap:butt;stroke-linejoin:miter;stroke-miterlimit:10;stroke-dasharray:none;stroke-opacity:1"
       transform="matrix(1.3333333,0,0,-1.3333333,435.5316,304.9236)"
       clip-path="url(#clipPath12)" />
    <path
       id="path13"
       d="m 0,0 c -21.497,-49.363 -42.994,-98.726 -64.49,-148.089 h -41.561 l 93.631,202.07 c -0.37,2.998 -0.974,7.485 -1.911,12.898 -2.839,16.4 -4.993,28.848 -11.943,42.038 -4.762,9.039 -8.707,16.526 -17.675,21.019 -1.862,0.933 -12.055,6.04 -23.408,1.911 -9.864,-3.588 -14.354,-11.876 -16.719,-16.242 -5.32,-9.818 -5.126,-19.234 -4.778,-23.408 l -8.121,0.478 c -0.276,2.502 -0.561,6.136 -0.477,10.51 0.098,5.156 0.601,31.464 19.108,50.159 4.061,4.102 8.475,8.452 15.764,10.51 11.447,3.23 21.405,-1.614 23.886,-2.867 7.215,-3.643 11.226,-8.859 14.331,-12.898 0.967,-1.257 4.249,-5.64 8.599,-15.764 4.576,-10.653 6.743,-19.302 7.165,-21.019 C 4.628,57.516 9.554,32.962 9.554,32.962 16.85,-3.402 17.706,-8.962 21.497,-23.885 c 4.439,-17.474 4.579,-15.022 10.032,-36.306 1.654,-6.457 4.134,-16.411 9.076,-29.14 3.882,-9.998 6.481,-14.491 10.032,-18.631 3.947,-4.601 8.932,-10.413 17.197,-11.942 11.464,-2.122 20.658,5.583 22.453,7.165 11.885,10.477 10.23,26.527 10.031,28.185 h 9.077 c 0.045,-1.588 0.078,-3.902 0,-6.688 -0.227,-8.101 -0.609,-21.801 -6.21,-34.395 -3.363,-7.561 -8.561,-19.248 -21.019,-24.363 -16.371,-6.72 -32.286,3.242 -33.918,4.299 -2.549,1.653 -10.098,6.988 -18.63,27.23 -7.17,17.01 -8.727,29.585 -11.465,44.426 -2.372,12.855 -6.271,30.885 -12.898,52.548 z"
       style="fill:#ffffff;fill-opacity:1;fill-rule:nonzero;stroke:none;stroke-width:5;stroke-linecap:butt;stroke-linejoin:miter;stroke-miterlimit:10;stroke-dasharray:none;stroke-opacity:1"
       transform="matrix(1.3333333,0,0,-1.3333333,344.19067,299.33253)"
       clip-path="url(#clipPath14)" />
  </g>
</svg>
